# xmcd CD database file
#
# Track frame offsets:
#	150
#	15526
#	33206
#	51855
#	68168
#	86562
#	104885
#	120959
#	126485
#	135744
#	152359
#
# Disc length: 2221 seconds
#
# Revision: 2
# Processed by: cddbd v1.5.2PL0 Copyright (c) Steve Scherf et al.
# Submitted via: CDex 1.70beta2
#
DISCID=8d08ab0b
DTITLE=Lisa Chappell - when then is now
DYEAR=2006
DGENRE=Country
TTITLE0=Flowers in the wastland
TTITLE1=Love's around the corner
TTITLE2=Desire
TTITLE3=Mother Son
TTITLE4=Noah
TTITLE5=Pheromone City
TTITLE6=When Then Is Now
TTITLE7=Auckland Airport
TTITLE8=Dancing Hands
TTITLE9=Midnight Bird
TTITLE10=Lullaby
EXTD=YEAR: 2006
EXTT0=
EXTT1=
EXTT2=
EXTT3=
EXTT4=
EXTT5=
EXTT6=
EXTT7=
EXTT8=
EXTT9=
EXTT10=
PLAYORDER=
